# xmcd CD database file
#
# Track frame offsets:
#	150
#	26027
#	42340
#	61665
#	91117
#	107129
#	125126
#
# Disc length: 1981 seconds
#
# Revision: 1
# Processed by: cddbd v1.5.2PL0 Copyright (c) Steve Scherf et al.
# Submitted via: jetAudio 7
#
DISCID=5707bb07
DTITLE=The Wood Brothers - Live Volume One: Sky High
DYEAR=1900
DGENRE=Folk
TTITLE0=One More Day
TTITLE1=Smoke Ring Halo
TTITLE2=Glad
TTITLE3=Stumbled In
TTITLE4=Payday
TTITLE5=Made It Up The Mountain
TTITLE6=Luckiest Man
EXTD=
EXTT0=
EXTT1=
EXTT2=
EXTT3=
EXTT4=
EXTT5=
EXTT6=
PLAYORDER=
